HIERARCHY
ROOT Hips
{
  OFFSET 5.72205e-005 65.662 3.42586
  CHANNELS 6 Xposition Yposition Zposition Zrotation Xrotation Yrotation
  JOINT Chest
  {
    OFFSET 0 8.7983 -4.7612
    CHANNELS 6 Xposition Yposition Zposition Zrotation Xrotation Yrotation
    JOINT Chest2
    {
      OFFSET 0 8.0291 0.4195
      CHANNELS 6 Xposition Yposition Zposition Zrotation Xrotation Yrotation
      JOINT Chest3
      {
        OFFSET 0 9.9351 -2.2114
        CHANNELS 6 Xposition Yposition Zposition Zrotation Xrotation Yrotation
        JOINT Neck
        {
          OFFSET 0 22.3885 -0.4656
          CHANNELS 6 Xposition Yposition Zposition Zrotation Xrotation Yrotation
          JOINT Head
          {
            OFFSET -0.0001 12.643 3.4389
            CHANNELS 6 Xposition Yposition Zposition Zrotation Xrotation Yrotation
            End Site
            {
              OFFSET 0.0001 17.6655 0.5274
            }
          }
        }
        JOINT LeftCollar
        {
          OFFSET 2.2603 21.606 7.4023
          CHANNELS 6 Xposition Yposition Zposition Zrotation Xrotation Yrotation
          JOINT LeftShoulder
          {
            OFFSET 13.5163 -1.1332 -5.0146
            CHANNELS 6 Xposition Yposition Zposition Zrotation Xrotation Yrotation
            JOINT LeftElbow
            {
              OFFSET -0.0995 -28.05 -0.2431
              CHANNELS 6 Xposition Yposition Zposition Zrotation Xrotation Yrotation
              JOINT LeftWrist
              {
                OFFSET 0.0679 -23.3996 -0.1402
                CHANNELS 6 Xposition Yposition Zposition Zrotation Xrotation Yrotation
                JOINT LeftFinger1
                {
                  OFFSET 0.7932 -9.069 2.5189
                  CHANNELS 6 Xposition Yposition Zposition Zrotation Xrotation Yrotation
                  JOINT LeftFinger11
                  {
                    OFFSET -0.8272 -3.3923 0.5977
                    CHANNELS 6 Xposition Yposition Zposition Zrotation Xrotation Yrotation
                    JOINT LeftFinger12
                    {
                      OFFSET -0.5649 -2.3158 0.4082
                      CHANNELS 6 Xposition Yposition Zposition Zrotation Xrotation Yrotation
                      End Site
                      {
                        OFFSET -0.4919 -1.6479 0.2673
                      }
                    }
                  }
                }
                JOINT LeftFinger2
                {
                  OFFSET 0.9159 -9.2044 0.2193
                  CHANNELS 6 Xposition Yposition Zposition Zrotation Xrotation Yrotation
                  JOINT LeftFinger21
                  {
                    OFFSET 0.0117 -4.1944 -0.0248
                    CHANNELS 6 Xposition Yposition Zposition Zrotation Xrotation Yrotation
                    JOINT LeftFinger22
                    {
                      OFFSET 0.0071 -2.3249 -0.0142
                      CHANNELS 6 Xposition Yposition Zposition Zrotation Xrotation Yrotation
                      End Site
                      {
                        OFFSET -0.1475 -2.0882 0.0028
                      }
                    }
                  }
                }
                JOINT LeftFinger3
                {
                  OFFSET 0.6113 -8.7231 -2.0637
                  CHANNELS 6 Xposition Yposition Zposition Zrotation Xrotation Yrotation
                  JOINT LeftFinger31
                  {
                    OFFSET -0.1927 -3.8059 -0.2383
                    CHANNELS 6 Xposition Yposition Zposition Zrotation Xrotation Yrotation
                    JOINT LeftFinger32
                    {
                      OFFSET -0.1091 -2.1688 -0.1362
                      CHANNELS 6 Xposition Yposition Zposition Zrotation Xrotation Yrotation
                      End Site
                      {
                        OFFSET -0.2358 -1.9176 -0.0906
                      }
                    }
                  }
                }
                JOINT LeftFinger4
                {
                  OFFSET -0.6151 -8.0947 -3.5641
                  CHANNELS 6 Xposition Yposition Zposition Zrotation Xrotation Yrotation
                  JOINT LeftFinger41
                  {
                    OFFSET -0.4882 -2.341 -0.6462
                    CHANNELS 6 Xposition Yposition Zposition Zrotation Xrotation Yrotation
                    JOINT LeftFinger42
                    {
                      OFFSET -0.3575 -1.7167 -0.4742
                      CHANNELS 6 Xposition Yposition Zposition Zrotation Xrotation Yrotation
                      End Site
                      {
                        OFFSET -0.4187 -1.5237 -0.3496
                      }
                    }
                  }
                }
                JOINT LeftFinger0
                {
                  OFFSET -1.42 -1.8761 1.4223
                  CHANNELS 6 Xposition Yposition Zposition Zrotation Xrotation Yrotation
                  JOINT LeftFinger01
                  {
                    OFFSET -1.1471 -3.4929 2.6334
                    CHANNELS 6 Xposition Yposition Zposition Zrotation Xrotation Yrotation
                    JOINT LeftFinger02
                    {
                      OFFSET -0.823 -2.3 1.6571
                      CHANNELS 6 Xposition Yposition Zposition Zrotation Xrotation Yrotation
                      End Site
                      {
                        OFFSET -0.5822 -1.6914 1.1582
                      }
                    }
                  }
                }
              }
            }
          }
        }
        JOINT RightCollar
        {
          OFFSET -2.2603 21.606 7.4023
          CHANNELS 6 Xposition Yposition Zposition Zrotation Xrotation Yrotation
          JOINT RightShoulder
          {
            OFFSET -13.5187 -1.1334 -5.0155
            CHANNELS 6 Xposition Yposition Zposition Zrotation Xrotation Yrotation
            JOINT RightElbow
            {
              OFFSET 0.0994 -28.0499 -0.2431
              CHANNELS 6 Xposition Yposition Zposition Zrotation Xrotation Yrotation
              JOINT RightWrist
              {
                OFFSET -0.0679 -23.3996 -0.1402
                CHANNELS 6 Xposition Yposition Zposition Zrotation Xrotation Yrotation
                JOINT RightFinger1
                {
                  OFFSET -0.7932 -9.0691 2.5189
                  CHANNELS 6 Xposition Yposition Zposition Zrotation Xrotation Yrotation
                  JOINT RightFinger11
                  {
                    OFFSET 0.8272 -3.3923 0.5977
                    CHANNELS 6 Xposition Yposition Zposition Zrotation Xrotation Yrotation
                    JOINT RightFinger12
                    {
                      OFFSET 0.565 -2.3158 0.4082
                      CHANNELS 6 Xposition Yposition Zposition Zrotation Xrotation Yrotation
                      End Site
                      {
                        OFFSET 0.4919 -1.6479 0.2673
                      }
                    }
                  }
                }
                JOINT RightFinger2
                {
                  OFFSET -0.916 -9.2044 0.2193
                  CHANNELS 6 Xposition Yposition Zposition Zrotation Xrotation Yrotation
                  JOINT RightFinger21
                  {
                    OFFSET -0.0117 -4.1944 -0.0248
                    CHANNELS 6 Xposition Yposition Zposition Zrotation Xrotation Yrotation
                    JOINT RightFinger22
                    {
                      OFFSET -0.0071 -2.3249 -0.0142
                      CHANNELS 6 Xposition Yposition Zposition Zrotation Xrotation Yrotation
                      End Site
                      {
                        OFFSET 0.1475 -2.0882 0.0028
                      }
                    }
                  }
                }
                JOINT RightFinger3
                {
                  OFFSET -0.6113 -8.7231 -2.0637
                  CHANNELS 6 Xposition Yposition Zposition Zrotation Xrotation Yrotation
                  JOINT RightFinger31
                  {
                    OFFSET 0.1927 -3.8059 -0.2383
                    CHANNELS 6 Xposition Yposition Zposition Zrotation Xrotation Yrotation
                    JOINT RightFinger32
                    {
                      OFFSET 0.1091 -2.1688 -0.1362
                      CHANNELS 6 Xposition Yposition Zposition Zrotation Xrotation Yrotation
                      End Site
                      {
                        OFFSET 0.2358 -1.9176 -0.0906
                      }
                    }
                  }
                }
                JOINT RightFinger4
                {
                  OFFSET 0.6151 -8.0947 -3.564
                  CHANNELS 6 Xposition Yposition Zposition Zrotation Xrotation Yrotation
                  JOINT RightFinger41
                  {
                    OFFSET 0.4882 -2.341 -0.6462
                    CHANNELS 6 Xposition Yposition Zposition Zrotation Xrotation Yrotation
                    JOINT RightFinger42
                    {
                      OFFSET 0.3574 -1.7166 -0.4742
                      CHANNELS 6 Xposition Yposition Zposition Zrotation Xrotation Yrotation
                      End Site
                      {
                        OFFSET 0.4187 -1.5237 -0.3496
                      }
                    }
                  }
                }
                JOINT RightFinger0
                {
                  OFFSET 1.4199 -1.8761 1.4221
                  CHANNELS 6 Xposition Yposition Zposition Zrotation Xrotation Yrotation
                  JOINT RightFinger01
                  {
                    OFFSET 1.1472 -3.4929 2.6336
                    CHANNELS 6 Xposition Yposition Zposition Zrotation Xrotation Yrotation
                    JOINT RightFinger02
                    {
                      OFFSET 0.8229 -2.3 1.6571
                      CHANNELS 6 Xposition Yposition Zposition Zrotation Xrotation Yrotation
                      End Site
                      {
                        OFFSET 0.5822 -1.6914 1.1582
                      }
                    }
                  }
                }
              }
            }
          }
        }
      }
    }
  }
  JOINT RightHip
  {
    OFFSET -9.412 3.9771 -0.7758
    CHANNELS 6 Xposition Yposition Zposition Zrotation Xrotation Yrotation
    JOINT RightKnee
    {
      OFFSET -0.7531 -40.938 0
      CHANNELS 6 Xposition Yposition Zposition Zrotation Xrotation Yrotation
      JOINT RightAnkle
      {
        OFFSET 0 -40.1986 0
        CHANNELS 6 Xposition Yposition Zposition Zrotation Xrotation Yrotation
        JOINT RightToe
        {
          OFFSET 0 -4.4182 9.239
          CHANNELS 6 Xposition Yposition Zposition Zrotation Xrotation Yrotation
          End Site
          {
            OFFSET 0 0 6.1981
          }
        }
      }
    }
  }
  JOINT LeftHip
  {
    OFFSET 9.4119 3.9773 -0.7758
    CHANNELS 6 Xposition Yposition Zposition Zrotation Xrotation Yrotation
    JOINT LeftKnee
    {
      OFFSET 0.7532 -40.9383 0
      CHANNELS 6 Xposition Yposition Zposition Zrotation Xrotation Yrotation
      JOINT LeftAnkle
      {
        OFFSET 0 -40.1986 0
        CHANNELS 6 Xposition Yposition Zposition Zrotation Xrotation Yrotation
        JOINT LeftToe
        {
          OFFSET 0 -4.4182 9.239
          CHANNELS 6 Xposition Yposition Zposition Zrotation Xrotation Yrotation
          End Site
          {
            OFFSET 0 0 6.1981
          }
        }
      }
    }
  }
}
MOTION
Frames:	4
Frame Time:	0.0333333
5.72205e-005 65.662 3.42586 0 0 -0 0 8.7983 -4.7612 0 0 -0 0 8.0291 0.4195 0 0 -0 0 9.9351 -2.2114 0 0 -0 0 22.3885 -0.4656 0 0 -0 -0.0001 12.643 3.4389 0 0 -0 2.2603 21.606 7.4023 0 0 -12.5014 13.5163 -1.1332 -5.0146 88.1196 14.2451 10.6914 -0.0995 -28.05 -0.2431 -0.00160068 -0.00239207 0.000740045 0.0679 -23.3996 -0.1402 -8.4365e-005 7.00714e-005 -9.52055e-007 0.7932 -9.069 2.5189 9.93923e-017 -1.98785e-016 -1.59028e-015 -0.8272 -3.3923 0.5977 9.93923e-017 -5.96354e-016 -1.59028e-015 -0.5649 -2.3158 0.4082 -9.93923e-017 -5.96354e-016 -1.59028e-015 0.9159 -9.2044 0.2193 9.93923e-017 -1.98785e-016 -1.59028e-015 0.0117 -4.1944 -0.0248 -0.0128176 0.00232552 8.52707e-005 0.0071 -2.3249 -0.0142 9.93923e-017 5.96354e-016 -0 0.6113 -8.7231 -2.0637 9.93923e-017 -1.98785e-016 -1.59028e-015 -0.1927 -3.8059 -0.2383 -0.0160551 0.00299681 0.000857156 -0.1091 -2.1688 -0.1362 -2.48481e-016 0 3.18055e-015 -0.6151 -8.0947 -3.5641 9.93923e-017 -1.98785e-016 -1.59028e-015 -0.4882 -2.341 -0.6462 -0.0125865 0.0031206 0.00282719 -0.3575 -1.7167 -0.4742 0 1.98785e-016 -0 -1.42 -1.8761 1.4223 9.93923e-017 -1.98785e-016 -1.59028e-015 -1.1471 -3.4929 2.6334 9.93923e-017 -5.96354e-016 -1.59028e-015 -0.823 -2.3 1.6571 -9.93923e-017 -5.96354e-016 -1.59028e-015 -2.2603 21.606 7.4023 -0.865644 0.16582 7.03859 -13.5187 -1.1334 -5.0155 -88.0329 10.2057 -10.5567 0.0994 -28.0499 -0.2431 0.0015593 -0.00248883 -0.000788628 -0.0679 -23.3996 -0.1402 7.87605e-005 4.10553e-005 1.24965e-005 -0.7932 -9.0691 2.5189 -3.97569e-016 -7.95139e-016 3.18055e-015 0.8272 -3.3923 0.5977 -1.98785e-016 -3.97569e-016 3.18055e-015 0.565 -2.3158 0.4082 -1.98785e-016 0 3.18055e-015 -0.916 -9.2044 0.2193 -3.97569e-016 -7.95139e-016 3.18055e-015 -0.0117 -4.1944 -0.0248 0.0129473 0.00231697 -8.70038e-005 -0.0071 -2.3249 -0.0142 9.93923e-017 -7.95139e-016 1.59028e-015 -0.6113 -8.7231 -2.0637 -3.97569e-016 -7.95139e-016 3.18055e-015 0.1927 -3.8059 -0.2383 0.0163314 0.00303369 -0.000872333 0.1091 -2.1688 -0.1362 3.97569e-016 7.95139e-016 -3.18055e-015 0.6151 -8.0947 -3.564 -3.97569e-016 -7.95139e-016 3.18055e-015 0.4882 -2.341 -0.6462 0.0145763 0.00367772 -0.00326275 0.3574 -1.7166 -0.4742 9.93923e-017 -3.97569e-016 -0 1.4199 -1.8761 1.4221 -3.97569e-016 -7.95139e-016 3.18055e-015 1.1472 -3.4929 2.6336 -1.98785e-016 -3.97569e-016 3.18055e-015 0.8229 -2.3 1.6571 -1.98785e-016 0 3.18055e-015 -9.412 3.9771 -0.7758 3.42482 1.32465 -0.0626183 -0.7531 -40.938 0 0.000117508 0.717283 0.000978199 0 -40.1986 0 -3.4257 -2.04197 -0.0604716 8.88178e-016 -4.4182 9.239 6.47761e-025 0 -0 9.4119 3.9773 -0.7758 -3.42483 1.34017 0.0627307 0.7532 -40.9383 -2.22045e-016 -0.000193936 0.682302 -0.0013703 -8.88179e-016 -40.1986 0 3.42574 -2.02253 0.0595886 -8.88178e-016 -4.4182 9.239 -8.45714e-024 0 -7.40531e-025 
8.13678e-006 19.3482 69.0173 -2.70914e-009 -69.6329 -1.91768e-008 1.69407e-021 8.7983 -4.7612 0.000142242 -0.12137 -0.066521 0 8.0291 0.4195 0.000143539 -0.242781 -0.133037 0 9.9351 -2.2114 0.000143596 -0.242785 -0.133042 -2.77556e-017 22.3885 -0.4656 7.98067e-005 16.3755 -0.00028038 -0.0001 12.643 3.4389 5.49887e-008 6.75972 -6.6744e-009 2.2603 21.606 7.4023 -5.9702 -0.110546 -12.5111 13.5163 -1.1332 -5.0146 30.2625 5.16081 21.3091 -0.0995 -28.05 -0.2431 -1.64269 -29.7221 0.420306 0.0679 -23.3996 -0.1402 -11.5785 3.82883 -0.323062 0.7932 -9.069 2.5189 -1.59028e-015 -1.59028e-015 -3.97569e-016 -0.8272 -3.3923 0.5977 -4.77083e-015 -1.59028e-015 -3.97569e-016 -0.5649 -2.3158 0.4082 -3.18055e-015 0 -0 0.9159 -9.2044 0.2193 -1.59028e-015 -1.59028e-015 -3.97569e-016 0.0117 -4.1944 -0.0248 -0.0128505 0.00233075 9.39304e-005 0.0071 -2.3249 -0.0142 0 1.59028e-015 -0 0.6113 -8.7231 -2.0637 -1.59028e-015 -1.59028e-015 -3.97569e-016 -0.1927 -3.8059 -0.2383 -0.0160522 0.00300814 0.000860509 -0.1091 -2.1688 -0.1362 -3.18055e-015 -1.59028e-015 -0 -0.6151 -8.0947 -3.5641 -1.59028e-015 -1.59028e-015 -3.97569e-016 -0.4882 -2.341 -0.6462 -0.0125988 0.00312992 0.00282845 -0.3575 -1.7167 -0.4742 3.18055e-015 3.18055e-015 -1.59028e-015 -1.42 -1.8761 1.4223 -1.59028e-015 -1.59028e-015 -3.97569e-016 -1.1471 -3.4929 2.6334 -4.77083e-015 -1.59028e-015 -3.97569e-016 -0.823 -2.3 1.6571 -3.18055e-015 0 -0 -2.2603 21.606 7.4023 5.08851 0.0178069 7.05526 -13.5187 -1.1334 -5.0155 -30.3347 3.65305 -16.5944 0.0994 -28.0499 -0.2431 10.306 -42.5779 5.10515 -0.0679 -23.3996 -0.1402 11.5502 3.8634 0.628619 -0.7932 -9.0691 2.5189 3.18055e-015 -3.18055e-015 2.78299e-015 0.8272 -3.3923 0.5977 1.59028e-015 0 1.59028e-015 0.565 -2.3158 0.4082 3.18055e-015 -3.18055e-015 1.98785e-015 -0.916 -9.2044 0.2193 3.18055e-015 -3.18055e-015 2.78299e-015 -0.0117 -4.1944 -0.0248 0.0129659 0.00231387 -7.92168e-005 -0.0071 -2.3249 -0.0142 9.9968e-007 8.8595e-006 -5.57048e-007 -0.6113 -8.7231 -2.0637 3.18055e-015 -3.18055e-015 2.78299e-015 0.1927 -3.8059 -0.2383 0.0162964 0.00302945 -0.000866815 0.1091 -2.1688 -0.1362 -1.59028e-015 0 -7.95139e-016 0.6151 -8.0947 -3.564 3.18055e-015 -3.18055e-015 2.78299e-015 0.4882 -2.341 -0.6462 0.0145332 0.0036792 -0.00325413 0.3574 -1.7166 -0.4742 2.42765e-031 3.18055e-015 -4.37326e-015 1.4199 -1.8761 1.4221 3.18055e-015 -3.18055e-015 2.78299e-015 1.1472 -3.4929 2.6336 1.59028e-015 0 1.59028e-015 0.8229 -2.3 1.6571 3.18055e-015 -3.18055e-015 1.98785e-015 -9.412 3.9771 -0.7758 -22.5898 -21.7015 -15.205 -0.7531 -40.938 1.77636e-015 -50.5673 71.1065 59.714 -3.55272e-015 -40.1986 0 0.634774 4.51716 3.03851 -3.55271e-015 -4.4182 9.239 1.00791e-007 1.6273e-008 8.33346e-007 9.4119 3.9773 -0.7758 22.5882 -21.7032 15.2045 0.7532 -40.9383 1.77636e-015 50.5658 71.108 -59.7162 0 -40.1986 -1.42109e-014 -0.634461 4.51719 -3.04244 -7.10543e-015 -4.4182 9.239 4.80768e-007 -8.82222e-007 -6.64466e-008 
9.40188e-005 -0.690926 94.3954 180 -79.0323 180 0 8.7983 -4.7612 7.29298e-005 -0.151673 -0.0964505 0 8.0291 0.4195 -0.000109496 -0.303356 -0.192896 1.38778e-017 9.9351 -2.2114 -0.00010956 -0.303362 -0.192902 0 22.3885 -0.4656 0.000191182 23.339 -0.000480038 -0.0001 12.643 3.4389 4.89003e-008 9.33581 4.72262e-008 2.2603 21.606 7.4023 -8.3314 -0.343958 -12.4366 13.5163 -1.1332 -5.0146 4.923 -1.40775 23.0716 -0.0995 -28.05 -0.2431 -3.8504 -43.1589 -1.22169 0.0679 -23.3996 -0.1402 -16.7844 5.72967 -0.236581 0.7932 -9.069 2.5189 -1.59028e-015 3.49861e-014 1.59028e-015 -0.8272 -3.3923 0.5977 -7.94503e-031 2.8625e-014 1.59028e-015 -0.5649 -2.3158 0.4082 -7.95139e-015 3.18055e-014 4.77083e-015 0.9159 -9.2044 0.2193 -1.59028e-015 3.49861e-014 1.59028e-015 0.0117 -4.1944 -0.0248 -0.0128218 0.00232364 8.59825e-005 0.0071 -2.3249 -0.0142 -1.59028e-015 -3.18055e-015 -1.59028e-015 0.6113 -8.7231 -2.0637 -1.59028e-015 3.49861e-014 1.59028e-015 -0.1927 -3.8059 -0.2383 -0.0160469 0.00299715 0.000858736 -0.1091 -2.1688 -0.1362 -1.59028e-015 3.18055e-015 -1.59028e-015 -0.6151 -8.0947 -3.5641 -1.59028e-015 3.49861e-014 1.59028e-015 -0.4882 -2.341 -0.6462 -0.0126028 0.00312411 0.00283191 -0.3575 -1.7167 -0.4742 -4.63163e-006 8.42675e-006 -8.77451e-006 -1.42 -1.8761 1.4223 -1.59028e-015 3.49861e-014 1.59028e-015 -1.1471 -3.4929 2.6334 -7.94503e-031 2.8625e-014 1.59028e-015 -0.823 -2.3 1.6571 -7.95139e-015 3.18055e-014 4.77083e-015 -2.2603 21.606 7.4023 7.50938 -0.0475675 6.92252 -13.5187 -1.1334 -5.0155 -4.52622 -0.58169 -17.553 0.0994 -28.0499 -0.2431 21.3323 -61.3908 14.3199 -0.0679 -23.3996 -0.1402 16.7456 5.62192 0.774095 -0.7932 -9.0691 2.5189 7.95139e-016 -4.77083e-015 -1.59028e-015 0.8272 -3.3923 0.5977 4.34315e-007 -1.69769e-006 -1.59054e-006 0.565 -2.3158 0.4082 3.97569e-015 -3.18055e-015 -0 -0.916 -9.2044 0.2193 7.95139e-016 -4.77083e-015 -1.59028e-015 -0.0117 -4.1944 -0.0248 0.0129591 0.00231542 -8.43883e-005 -0.0071 -2.3249 -0.0142 -3.18055e-015 -3.18055e-015 -3.18055e-015 -0.6113 -8.7231 -2.0637 7.95139e-016 -4.77083e-015 -1.59028e-015 0.1927 -3.8059 -0.2383 0.0163447 0.00303391 -0.000871497 0.1091 -2.1688 -0.1362 3.18055e-015 -1.59028e-015 1.59028e-015 0.6151 -8.0947 -3.564 7.95139e-016 -4.77083e-015 -1.59028e-015 0.4882 -2.341 -0.6462 0.0145902 0.00367706 -0.00326569 0.3574 -1.7166 -0.4742 -3.97569e-015 0 3.18055e-015 1.4199 -1.8761 1.4221 7.95139e-016 -4.77083e-015 -1.59028e-015 1.1472 -3.4929 2.6336 4.34315e-007 -1.69769e-006 -1.59054e-006 0.8229 -2.3 1.6571 3.97569e-015 -3.18055e-015 -0 -9.412 3.9771 -0.7758 -38.8809 -30.2234 -24.2796 -0.7531 -40.938 0 -127.989 56.2684 133.887 -1.06581e-014 -40.1986 0 1.79906 7.72587 4.28216 0 -4.4182 9.239 3.25053e-007 -2.61626e-006 1.50727e-006 9.4119 3.9773 -0.7758 38.8676 -30.2239 24.2637 0.7532 -40.9383 1.42109e-014 127.989 56.2677 -133.891 3.55272e-015 -40.1986 -1.42109e-014 -1.80946 7.72546 -4.28057 -7.10543e-015 -4.4182 9.239 -7.31905e-007 -5.76025e-007 1.48434e-007 
0.000121558 3.85722 88.9798 -180 -85.9956 180 0 8.7983 -4.7612 -4.56695e-005 -0.0913032 -0.0901872 -1.73472e-018 8.0291 0.4195 -0.000234926 -0.182569 -0.180367 -6.9389e-018 9.9351 -2.2114 -0.000235073 -0.182587 -0.180375 0 22.3885 -0.4656 -0.000561599 20.8922 0.00157359 -0.0001 12.643 3.4389 4.19057e-008 7.72803 1.29955e-007 2.2603 21.606 7.4023 -7.08214 -0.698115 -12.2746 13.5163 -1.1332 -5.0146 9.96767 0.16358 22.8251 -0.0995 -28.05 -0.2431 -3.58528 -40.6433 -0.9725 0.0679 -23.3996 -0.1402 -15.5996 5.70351 -0.0532548 0.7932 -9.069 2.5189 -3.18055e-015 6.36111e-015 -0 -0.8272 -3.3923 0.5977 1.59028e-015 0 -3.18055e-015 -0.5649 -2.3158 0.4082 -3.18055e-015 6.36111e-015 -0 0.9159 -9.2044 0.2193 -3.18055e-015 6.36111e-015 -0 0.0117 -4.1944 -0.0248 -0.0128075 0.00231365 7.24196e-005 0.0071 -2.3249 -0.0142 -9.22925e-006 -1.9565e-006 -3.64575e-008 0.6113 -8.7231 -2.0637 -3.18055e-015 6.36111e-015 -0 -0.1927 -3.8059 -0.2383 -0.0160617 0.00299447 0.000851012 -0.1091 -2.1688 -0.1362 3.18055e-015 -3.18055e-015 -4.77083e-015 -0.6151 -8.0947 -3.5641 -3.18055e-015 6.36111e-015 -0 -0.4882 -2.341 -0.6462 -0.012545 0.00310873 0.00281939 -0.3575 -1.7167 -0.4742 3.18055e-015 -6.36111e-015 -1.59028e-015 -1.42 -1.8761 1.4223 -3.18055e-015 6.36111e-015 -0 -1.1471 -3.4929 2.6334 1.59028e-015 0 -3.18055e-015 -0.823 -2.3 1.6571 -3.18055e-015 6.36111e-015 -0 -2.2603 21.606 7.4023 6.39695 -0.0274604 6.64202 -13.5187 -1.1334 -5.0155 -9.72692 0.622999 -17.3647 0.0994 -28.0499 -0.2431 18.9232 -57.8845 12.1952 -0.0679 -23.3996 -0.1402 15.5906 5.23071 0.749272 -0.7932 -9.0691 2.5189 -6.1271e-006 -6.45168e-007 -4.55769e-006 0.8272 -3.3923 0.5977 7.95139e-016 0 1.59028e-015 0.565 -2.3158 0.4082 1.59028e-015 -3.18055e-015 -0 -0.916 -9.2044 0.2193 -6.1271e-006 -6.45168e-007 -4.55769e-006 -0.0117 -4.1944 -0.0248 0.0129393 0.00231578 -8.60591e-005 -0.0071 -2.3249 -0.0142 1.59028e-015 -3.18055e-015 3.18055e-015 -0.6113 -8.7231 -2.0637 -6.1271e-006 -6.45168e-007 -4.55769e-006 0.1927 -3.8059 -0.2383 0.0163672 0.00303148 -0.000871789 0.1091 -2.1688 -0.1362 -2.38542e-015 3.18055e-015 1.59028e-015 0.6151 -8.0947 -3.564 -6.1271e-006 -6.45168e-007 -4.55769e-006 0.4882 -2.341 -0.6462 0.0145581 0.0036691 -0.00325656 0.3574 -1.7166 -0.4742 -7.95139e-016 3.18055e-015 -1.59028e-015 1.4199 -1.8761 1.4221 -6.1271e-006 -6.45168e-007 -4.55769e-006 1.1472 -3.4929 2.6336 7.95139e-016 0 1.59028e-015 0.8229 -2.3 1.6571 1.59028e-015 -3.18055e-015 -0 -9.412 3.9771 -0.7758 -35.6697 -28.503 -22.9182 -0.7531 -40.938 0 -119.012 62.3486 126.106 -3.55271e-015 -40.1986 1.42109e-014 0.905151 7.20842 4.48559 0 -4.4182 9.23901 1.75402e-007 2.88469e-006 -2.9708e-006 9.4119 3.9773 -0.7758 35.6356 -28.4981 22.8727 0.7532 -40.9383 0 119.013 62.3481 -126.112 0 -40.1986 -1.42109e-014 -0.938181 7.2073 -4.46924 7.10543e-015 -4.4182 9.239 -2.0918e-007 -8.16784e-007 4.15534e-008 
